<svg width="38" height="38" viewBox="0 0 38 38" fill="none" xmlns="http://www.w3.org/2000/svg">
<circle cx="18.6666" cy="19" r="18.5185" fill="white"/>
<path d="M12.5829 24.8256C13.515 26 15.25 26 18.7198 26H19.2802C22.75 26 24.485 26 25.4171 24.8256M12.5829 24.8256C11.6507 23.6511 11.9704 21.8681 12.6099 18.3021C13.0646 15.7662 13.292 14.4982 14.1552 13.7491M12.5829 24.8256C12.5829 24.8256 12.5829 24.8256 12.5829 24.8256ZM25.4171 24.8256C26.3493 23.6511 26.0296 21.8681 25.3901 18.3021C24.9354 15.7662 24.708 14.4982 23.8448 13.7491M25.4171 24.8256C25.4171 24.8256 25.4171 24.8256 25.4171 24.8256ZM23.8448 13.7491C22.9816 13 21.7478 13 19.2802 13H18.7198C16.2522 13 15.0184 13 14.1552 13.7491M23.8448 13.7491C23.8448 13.7491 23.8448 13.7491 23.8448 13.7491ZM14.1552 13.7491C14.1552 13.7491 14.1552 13.7491 14.1552 13.7491Z" stroke="black" stroke-width="1.5"/>
<path d="M17 16C17.2911 17.1652 18.0766 18 19 18C19.9234 18 20.7089 17.1652 21 16" stroke="black" stroke-width="1.5" stroke-linecap="round"/>
</svg>
