<svg width="17" height="17" viewBox="0 0 17 17" fill="none" xmlns="http://www.w3.org/2000/svg">
<path d="M11.8058 15.6943L11.7597 14.9458L11.8058 15.6943ZM6.33265 5.82443L6.27616 6.5723C6.47947 6.58766 6.68026 6.51958 6.83231 6.38375C6.98436 6.24792 7.07455 6.05605 7.08213 5.8523L6.33265 5.82443ZM15.5253 12.3716L16.264 12.5015L15.5253 12.3716ZM11.7597 14.9458C10.1685 15.0438 8.53438 15.2341 6.93554 15.0486C5.37518 14.8676 3.93299 14.3326 2.75936 13.0189L1.64072 14.0182C3.12623 15.6811 4.95228 16.3286 6.76269 16.5386C8.53465 16.7442 10.3739 16.534 11.852 16.4429L11.7597 14.9458ZM2.75936 13.0189C1.61674 11.7398 1.38577 10.0269 1.96456 8.70578C2.52249 7.43233 3.89674 6.39259 6.27616 6.5723L6.38913 5.07656C3.4577 4.85516 1.43608 6.17414 0.59064 8.10384C-0.233944 9.98593 0.124216 12.3206 1.64072 14.0182L2.75936 13.0189ZM11.852 16.4429C12.3848 16.4101 12.9662 16.3726 13.496 16.265C14.0256 16.1575 14.5862 15.9652 15.0342 15.565L14.0349 14.4464C13.8708 14.5929 13.6086 14.7116 13.1976 14.795C12.7869 14.8784 12.31 14.9118 11.7597 14.9458L11.852 16.4429ZM16.264 12.5015C16.5205 11.043 16.9359 9.23899 16.9307 7.45517C16.9254 5.63262 16.487 3.74539 15.0015 2.08251L13.8829 3.08183C15.0565 4.3956 15.4261 5.88874 15.4307 7.45957C15.4354 9.06912 15.0628 10.6715 14.7867 12.2417L16.264 12.5015ZM15.0015 2.08251C13.485 0.384932 11.2054 -0.233189 9.24257 0.374781C7.23012 0.998132 5.69242 2.85881 5.58317 5.79656L7.08213 5.8523C7.17081 3.46776 8.35832 2.21898 9.68639 1.80762C11.0641 1.38087 12.7403 1.80277 13.8829 3.08183L15.0015 2.08251ZM14.7867 12.2417C14.6912 12.7847 14.6044 13.2548 14.4754 13.6535C14.3463 14.0525 14.199 14.2998 14.0349 14.4464L15.0342 15.565C15.4823 15.1647 15.7363 14.6293 15.9026 14.1152C16.069 13.6007 16.1715 13.0272 16.264 12.5015L14.7867 12.2417Z" fill="white"/>
</svg>
